<svg width="153" height="112" viewBox="0 0 153 112" fill="none" xmlns="http://www.w3.org/2000/svg">
<g clip-path="url(#clip0_255_205)">
<rect width="153" height="112" fill="black" fill-opacity="0.26"/>
<path d="M60.076 61V50.0909H62.0522V59.3434H66.8569V61H60.076ZM72.0558 61.1598C71.2567 61.1598 70.5643 60.984 69.9783 60.6325C69.3924 60.2809 68.9379 59.7891 68.6147 59.157C68.2951 58.5249 68.1353 57.7862 68.1353 56.9411C68.1353 56.0959 68.2951 55.3555 68.6147 54.7198C68.9379 54.0842 69.3924 53.5906 69.9783 53.239C70.5643 52.8874 71.2567 52.7116 72.0558 52.7116C72.8548 52.7116 73.5472 52.8874 74.1332 53.239C74.7191 53.5906 75.1719 54.0842 75.4915 54.7198C75.8146 55.3555 75.9762 56.0959 75.9762 56.9411C75.9762 57.7862 75.8146 58.5249 75.4915 59.157C75.1719 59.7891 74.7191 60.2809 74.1332 60.6325C73.5472 60.984 72.8548 61.1598 72.0558 61.1598ZM72.0664 59.6151C72.4996 59.6151 72.8619 59.4961 73.1531 59.2582C73.4442 59.0167 73.6609 58.6935 73.8029 58.2887C73.9485 57.8839 74.0213 57.4329 74.0213 56.9357C74.0213 56.435 73.9485 55.9822 73.8029 55.5774C73.6609 55.169 73.4442 54.8441 73.1531 54.6026C72.8619 54.3612 72.4996 54.2404 72.0664 54.2404C71.6225 54.2404 71.2532 54.3612 70.9585 54.6026C70.6673 54.8441 70.4489 55.169 70.3033 55.5774C70.1612 55.9822 70.0902 56.435 70.0902 56.9357C70.0902 57.4329 70.1612 57.8839 70.3033 58.2887C70.4489 58.6935 70.6673 59.0167 70.9585 59.2582C71.2532 59.4961 71.6225 59.6151 72.0664 59.6151ZM81.1711 64.2386C80.4786 64.2386 79.8838 64.1445 79.3866 63.9563C78.8895 63.7717 78.49 63.5231 78.1881 63.2106C77.8863 62.8981 77.6768 62.5518 77.5596 62.1719L79.2961 61.7511C79.3742 61.9109 79.4878 62.0689 79.637 62.2251C79.7861 62.3849 79.9868 62.5163 80.2389 62.6193C80.4946 62.7259 80.816 62.7791 81.203 62.7791C81.7499 62.7791 82.2027 62.646 82.5613 62.3796C82.92 62.1168 83.0993 61.6836 83.0993 61.0799V59.5298H83.0035C82.904 59.7287 82.7584 59.9329 82.5667 60.1424C82.3785 60.3519 82.1281 60.5277 81.8156 60.6697C81.5067 60.8118 81.1178 60.8828 80.6491 60.8828C80.0205 60.8828 79.4506 60.7354 78.9392 60.4407C78.4314 60.1424 78.0265 59.6985 77.7247 59.109C77.4264 58.516 77.2773 57.7738 77.2773 56.8825C77.2773 55.984 77.4264 55.2259 77.7247 54.608C78.0265 53.9865 78.4331 53.516 78.9445 53.1964C79.4559 52.8732 80.0258 52.7116 80.6544 52.7116C81.1338 52.7116 81.528 52.7933 81.8369 52.9567C82.1494 53.1165 82.398 53.31 82.5827 53.5373C82.7673 53.761 82.9076 53.9723 83.0035 54.1712H83.11V52.8182H85.0116V61.1332C85.0116 61.8327 84.8447 62.4116 84.5109 62.8697C84.1771 63.3278 83.7208 63.6705 83.142 63.8977C82.5631 64.125 81.9062 64.2386 81.1711 64.2386ZM81.1871 59.37C81.5954 59.37 81.9434 59.2706 82.2311 59.0717C82.5187 58.8729 82.7371 58.587 82.8863 58.2141C83.0354 57.8413 83.11 57.3938 83.11 56.8718C83.11 56.3569 83.0354 55.9059 82.8863 55.5188C82.7407 55.1317 82.5241 54.8317 82.2364 54.6186C81.9523 54.402 81.6025 54.2937 81.1871 54.2937C80.7574 54.2937 80.3987 54.4055 80.1111 54.6293C79.8234 54.853 79.6068 55.1602 79.4612 55.5508C79.3156 55.9379 79.2428 56.3782 79.2428 56.8718C79.2428 57.3725 79.3156 57.8111 79.4612 58.1875C79.6104 58.5604 79.8287 58.8516 80.1164 59.0611C80.4076 59.267 80.7645 59.37 81.1871 59.37ZM90.5567 61.1598C89.7577 61.1598 89.0653 60.984 88.4793 60.6325C87.8934 60.2809 87.4388 59.7891 87.1157 59.157C86.7961 58.5249 86.6363 57.7862 86.6363 56.9411C86.6363 56.0959 86.7961 55.3555 87.1157 54.7198C87.4388 54.0842 87.8934 53.5906 88.4793 53.239C89.0653 52.8874 89.7577 52.7116 90.5567 52.7116C91.3557 52.7116 92.0482 52.8874 92.6341 53.239C93.2201 53.5906 93.6729 54.0842 93.9925 54.7198C94.3156 55.3555 94.4772 56.0959 94.4772 56.9411C94.4772 57.7862 94.3156 58.5249 93.9925 59.157C93.6729 59.7891 93.2201 60.2809 92.6341 60.6325C92.0482 60.984 91.3557 61.1598 90.5567 61.1598ZM90.5674 59.6151C91.0006 59.6151 91.3628 59.4961 91.654 59.2582C91.9452 59.0167 92.1618 58.6935 92.3039 58.2887C92.4495 57.8839 92.5223 57.4329 92.5223 56.9357C92.5223 56.435 92.4495 55.9822 92.3039 55.5774C92.1618 55.169 91.9452 54.8441 91.654 54.6026C91.3628 54.3612 91.0006 54.2404 90.5674 54.2404C90.1235 54.2404 89.7542 54.3612 89.4594 54.6026C89.1682 54.8441 88.9498 55.169 88.8042 55.5774C88.6622 55.9822 88.5912 56.435 88.5912 56.9357C88.5912 57.4329 88.6622 57.8839 88.8042 58.2887C88.9498 58.6935 89.1682 59.0167 89.4594 59.2582C89.7542 59.4961 90.1235 59.6151 90.5674 59.6151Z" fill="black"/>
<g clip-path="url(#clip1_255_205)">
<rect width="175" height="129" transform="translate(-22 -17)" fill="#0A0A16"/>
<g filter="url(#filter0_f_255_205)">
<path d="M59.4209 31.5576C48.5321 47.6923 9.73192 52.6864 50.8925 52.6864C6.94463 54.9914 8.98287 99.2232 36.6786 77.6568C41.9146 73.5796 46.5124 69.7427 51.759 65.2078M73.6006 73.892C61.7715 87.8232 65.2809 76.7253 71.0763 63.4429M51.759 65.2078C55.905 61.6242 60.4562 57.6047 66.0475 52.6864C71.428 48.6143 82.7991 38.8567 82.7991 38.8567C82.7991 38.8567 76.0843 51.9654 71.0763 63.4429M51.759 65.2078C55.5198 65.4134 65.1278 65.9015 71.0763 63.4429M71.0763 63.4429C77.3967 60.8306 80.0332 58.372 80.0332 58.372" stroke="#E69545" stroke-width="3.53427" stroke-linecap="round" stroke-linejoin="round"/>
</g>
<path d="M59.4209 31.5576C48.5321 47.6923 9.73192 52.6864 50.8925 52.6864C6.94463 54.9914 8.98287 99.2232 36.6786 77.6568C41.9146 73.5796 46.5124 69.7427 51.759 65.2078M73.6006 73.892C61.7715 87.8232 65.2809 76.7253 71.0763 63.4429M51.759 65.2078C55.905 61.6242 60.4562 57.6047 66.0475 52.6864C71.428 48.6143 82.7991 38.8567 82.7991 38.8567C82.7991 38.8567 76.0843 51.9654 71.0763 63.4429M51.759 65.2078C55.5198 65.4134 65.1278 65.9015 71.0763 63.4429M71.0763 63.4429C77.3967 60.8306 80.0332 58.372 80.0332 58.372" stroke="black" stroke-opacity="0.7" stroke-width="3.53427" stroke-linecap="round" stroke-linejoin="round"/>
<path d="M59.4209 29.7139C48.5321 45.8486 9.73192 50.8427 50.8925 50.8427C6.94463 53.1476 8.98287 97.3794 36.6786 75.8131C41.9146 71.7359 46.5124 67.899 51.759 63.3641M73.6006 72.0483C61.7715 85.9794 65.2809 74.8815 71.0763 61.5991M51.759 63.3641C55.905 59.7805 60.4562 55.761 66.0475 50.8427C71.428 46.7706 82.7991 37.0129 82.7991 37.0129C82.7991 37.0129 76.0843 50.1216 71.0763 61.5991M51.759 63.3641C55.5198 63.5697 65.1278 64.0578 71.0763 61.5991M71.0763 61.5991C77.3967 58.9869 80.0332 56.5282 80.0332 56.5282" stroke="#E69545" stroke-width="2.30496" stroke-linecap="round" stroke-linejoin="round"/>
<g filter="url(#filter1_f_255_205)">
<path d="M59.4209 29.7139C48.5321 45.8486 9.73192 50.8427 50.8925 50.8427C6.94463 53.1476 8.98287 97.3794 36.6786 75.8131C41.9146 71.7359 46.5124 67.899 51.759 63.3641M73.6006 72.0483C61.7715 85.9794 65.2809 74.8815 71.0763 61.5991M51.759 63.3641C55.905 59.7805 60.4562 55.761 66.0475 50.8427C71.428 46.7706 82.7991 37.0129 82.7991 37.0129C82.7991 37.0129 76.0843 50.1216 71.0763 61.5991M51.759 63.3641C55.5198 63.5697 65.1278 64.0578 71.0763 61.5991M71.0763 61.5991C77.3967 58.9869 80.0332 56.5282 80.0332 56.5282" stroke="#FFCA5F" stroke-width="1.22931" stroke-linecap="round" stroke-linejoin="round"/>
</g>
<path d="M94.2149 45.9412H99.0415V46.8402H95.183V50.104H98.35V51.0029H95.183V54.737H99.3181V55.6221H94.2149V45.9412ZM102.255 46.5083V54.2114C102.264 54.4419 102.31 54.6033 102.393 54.6955C102.485 54.7785 102.633 54.8199 102.835 54.8199H103.057L103.956 54.571L104.025 55.4423L103.057 55.705H102.808C102.245 55.705 101.849 55.5575 101.618 55.2625C101.397 54.9582 101.286 54.4973 101.286 53.8795V46.4944L101.134 45.3742L102.089 45.2498L102.255 46.5083ZM107.249 55.6221C106.705 55.6221 106.29 55.4792 106.004 55.1933C105.728 54.9075 105.589 54.4973 105.589 53.9625V50.3668C105.589 49.8412 105.728 49.4356 106.004 49.1497C106.29 48.8547 106.705 48.7072 107.249 48.7072H108.563C109.107 48.7072 109.517 48.8547 109.794 49.1497C110.079 49.4356 110.222 49.8412 110.222 50.3668V51.8051L109.462 52.4827H106.557V53.9902C106.557 54.488 106.797 54.737 107.277 54.737H108.729L109.849 54.4051L110.098 55.2487L108.729 55.6221H107.249ZM106.557 50.3529V51.5976H109.061L109.254 51.4455V50.3529C109.254 49.8551 109.015 49.6061 108.535 49.6061H107.277C106.797 49.6061 106.557 49.8551 106.557 50.3529ZM117.13 54.571L117.268 55.6221L116.314 55.7327L116.162 54.5157V50.3529C116.162 49.8551 115.922 49.6061 115.442 49.6061H115L113.257 50.5742V55.6221H112.289V49.8551L112.151 48.7349L113.091 48.6104L113.216 49.5923L114.779 48.7072H115.47C116.005 48.7072 116.415 48.8547 116.701 49.1497C116.987 49.4356 117.13 49.8412 117.13 50.3668V54.571ZM119.497 49.0944L120.88 48.7072H122.457C123.001 48.7072 123.411 48.8547 123.688 49.1497C123.973 49.4356 124.116 49.8412 124.116 50.3668V54.5295L124.268 55.6221L123.314 55.7327L123.162 54.5019L121.613 55.6221H120.935C120.401 55.6221 119.99 55.4792 119.705 55.1933C119.419 54.8983 119.276 54.488 119.276 53.9625V53.1189C119.276 52.5934 119.419 52.1877 119.705 51.9019C119.99 51.6068 120.401 51.4593 120.935 51.4593H123.148V50.3529C123.148 49.8551 122.908 49.6061 122.429 49.6061H120.88L119.746 49.938L119.497 49.0944ZM120.963 54.737H121.364L123.148 53.437V52.3168H120.963C120.484 52.3168 120.244 52.5657 120.244 53.0636V53.9902C120.244 54.488 120.484 54.737 120.963 54.737ZM98.433 68.7636L97.1468 63.8402H96.7043L95.4043 68.7636H98.433ZM95.183 69.6487L94.4086 72.6221H93.4543L95.9851 62.9412H97.8522L100.383 72.6221H99.4288L98.6405 69.6487H95.183ZM105.386 65.7072V66.7306L104.915 66.7029L103.173 67.4636V72.6221H102.205V66.8551L102.067 65.7349L102.965 65.6104L103.118 66.6061L104.694 65.7072H105.386ZM114.364 71.5157V67.5189C114.364 67.1778 114.304 66.9426 114.184 66.8136C114.064 66.6753 113.857 66.6061 113.562 66.6061L111.736 67.5742V72.6221H110.768V67.5189C110.768 67.187 110.708 66.9519 110.588 66.8136C110.469 66.6753 110.261 66.6061 109.966 66.6061L108.154 67.5742V72.6221H107.186V66.6476L107.048 65.7349L107.988 65.6104L108.113 66.5923L109.676 65.7072H110.077C110.87 65.7072 111.386 66.0161 111.626 66.6338L113.271 65.7072H113.672C114.207 65.7072 114.617 65.8547 114.903 66.1497C115.189 66.4356 115.332 66.8412 115.332 67.3668V71.571L115.47 72.6221L114.516 72.7327L114.364 71.5157ZM117.703 66.0944L119.086 65.7072H120.663C121.207 65.7072 121.617 65.8547 121.893 66.1497C122.179 66.4356 122.322 66.8412 122.322 67.3668V71.5295L122.474 72.6221L121.52 72.7327L121.368 71.5019L119.819 72.6221H119.141C118.607 72.6221 118.196 72.4792 117.91 72.1933C117.625 71.8983 117.482 71.488 117.482 70.9625V70.1189C117.482 69.5934 117.625 69.1877 117.91 68.9019C118.196 68.6068 118.607 68.4593 119.141 68.4593H121.354V67.3529C121.354 66.8551 121.114 66.6061 120.635 66.6061H119.086L117.952 66.938L117.703 66.0944ZM119.169 71.737H119.57L121.354 70.437V69.3168H119.169C118.69 69.3168 118.45 69.5657 118.45 70.0636V70.9902C118.45 71.488 118.69 71.737 119.169 71.737ZM129.607 71.571L129.745 72.6221L128.791 72.7327L128.639 71.5157V67.3529C128.639 66.8551 128.399 66.6061 127.919 66.6061H127.477L125.734 67.5742V72.6221H124.766V66.8551L124.628 65.7349L125.568 65.6104L125.693 66.5923L127.256 65.7072H127.947C128.482 65.7072 128.892 65.8547 129.178 66.1497C129.464 66.4356 129.607 66.8412 129.607 67.3668V71.571ZM133.966 71.737L135.722 70.7689V66.9104L134.145 66.6061H133.523C133.044 66.6061 132.804 66.8551 132.804 67.3529V70.9902C132.804 71.488 133.044 71.737 133.523 71.737H133.966ZM135.722 63.4944L135.57 62.3466L136.524 62.2221L136.69 63.4944V71.5433L136.828 72.6359L135.888 72.7465L135.75 71.737L134.187 72.6221H133.495C132.961 72.6221 132.55 72.4792 132.265 72.1933C131.979 71.8983 131.836 71.488 131.836 70.9625V67.3668C131.836 66.8412 131.979 66.4356 132.265 66.1497C132.55 65.8547 132.961 65.7072 133.495 65.7072H134.145L135.722 66.0114V63.4944Z" fill="#DAE6FA"/>
</g>
</g>
<defs>
<filter id="filter0_f_255_205" x="8.96902" y="23.7971" width="81.5903" height="67.5317" filterUnits="userSpaceOnUse" color-interpolation-filters="sRGB">
<feFlood flood-opacity="0" result="BackgroundImageFix"/>
<feBlend mode="normal" in="SourceGraphic" in2="BackgroundImageFix" result="shape"/>
<feGaussianBlur stdDeviation="2.99645" result="effect1_foregroundBlur_255_205"/>
</filter>
<filter id="filter1_f_255_205" x="15.6494" y="28.6386" width="68.2257" height="54.1603" filterUnits="userSpaceOnUse" color-interpolation-filters="sRGB">
<feFlood flood-opacity="0" result="BackgroundImageFix"/>
<feBlend mode="normal" in="SourceGraphic" in2="BackgroundImageFix" result="shape"/>
<feGaussianBlur stdDeviation="0.230496" result="effect1_foregroundBlur_255_205"/>
</filter>
<clipPath id="clip0_255_205">
<rect width="153" height="112" fill="white"/>
</clipPath>
<clipPath id="clip1_255_205">
<rect width="175" height="129" fill="white" transform="translate(-22 -17)"/>
</clipPath>
</defs>
</svg>
