<svg width="187" height="129" viewBox="0 0 187 129" fill="none" xmlns="http://www.w3.org/2000/svg">
<g clip-path="url(#clip0_130_49)" filter="url(#filter0_d_130_49)">
<rect width="153" height="112" transform="translate(17)" fill="black" fill-opacity="0.26"/>
<path d="M77.076 61V50.0909H79.0522V59.3434H83.8569V61H77.076ZM89.0558 61.1598C88.2567 61.1598 87.5643 60.984 86.9783 60.6325C86.3924 60.2809 85.9379 59.7891 85.6147 59.157C85.2951 58.5249 85.1353 57.7862 85.1353 56.9411C85.1353 56.0959 85.2951 55.3555 85.6147 54.7198C85.9379 54.0842 86.3924 53.5906 86.9783 53.239C87.5643 52.8874 88.2567 52.7116 89.0558 52.7116C89.8548 52.7116 90.5472 52.8874 91.1332 53.239C91.7191 53.5906 92.1719 54.0842 92.4915 54.7198C92.8146 55.3555 92.9762 56.0959 92.9762 56.9411C92.9762 57.7862 92.8146 58.5249 92.4915 59.157C92.1719 59.7891 91.7191 60.2809 91.1332 60.6325C90.5472 60.984 89.8548 61.1598 89.0558 61.1598ZM89.0664 59.6151C89.4996 59.6151 89.8619 59.4961 90.1531 59.2582C90.4442 59.0167 90.6609 58.6935 90.8029 58.2887C90.9485 57.8839 91.0213 57.4329 91.0213 56.9357C91.0213 56.435 90.9485 55.9822 90.8029 55.5774C90.6609 55.169 90.4442 54.8441 90.1531 54.6026C89.8619 54.3612 89.4996 54.2404 89.0664 54.2404C88.6225 54.2404 88.2532 54.3612 87.9585 54.6026C87.6673 54.8441 87.4489 55.169 87.3033 55.5774C87.1612 55.9822 87.0902 56.435 87.0902 56.9357C87.0902 57.4329 87.1612 57.8839 87.3033 58.2887C87.4489 58.6935 87.6673 59.0167 87.9585 59.2582C88.2532 59.4961 88.6225 59.6151 89.0664 59.6151ZM98.1711 64.2386C97.4786 64.2386 96.8838 64.1445 96.3866 63.9563C95.8895 63.7717 95.49 63.5231 95.1881 63.2106C94.8863 62.8981 94.6768 62.5518 94.5596 62.1719L96.2961 61.7511C96.3742 61.9109 96.4878 62.0689 96.637 62.2251C96.7861 62.3849 96.9868 62.5163 97.2389 62.6193C97.4946 62.7259 97.816 62.7791 98.203 62.7791C98.7499 62.7791 99.2027 62.646 99.5613 62.3796C99.92 62.1168 100.099 61.6836 100.099 61.0799V59.5298H100.003C99.904 59.7287 99.7584 59.9329 99.5667 60.1424C99.3785 60.3519 99.1281 60.5277 98.8156 60.6697C98.5067 60.8118 98.1178 60.8828 97.6491 60.8828C97.0205 60.8828 96.4506 60.7354 95.9392 60.4407C95.4314 60.1424 95.0265 59.6985 94.7247 59.109C94.4264 58.516 94.2773 57.7738 94.2773 56.8825C94.2773 55.984 94.4264 55.2259 94.7247 54.608C95.0265 53.9865 95.4331 53.516 95.9445 53.1964C96.4559 52.8732 97.0258 52.7116 97.6544 52.7116C98.1338 52.7116 98.528 52.7933 98.8369 52.9567C99.1494 53.1165 99.398 53.31 99.5827 53.5373C99.7673 53.761 99.9076 53.9723 100.003 54.1712H100.11V52.8182H102.012V61.1332C102.012 61.8327 101.845 62.4116 101.511 62.8697C101.177 63.3278 100.721 63.6705 100.142 63.8977C99.5631 64.125 98.9062 64.2386 98.1711 64.2386ZM98.1871 59.37C98.5954 59.37 98.9434 59.2706 99.2311 59.0717C99.5187 58.8729 99.7371 58.587 99.8863 58.2141C100.035 57.8413 100.11 57.3938 100.11 56.8718C100.11 56.3569 100.035 55.9059 99.8863 55.5188C99.7407 55.1317 99.5241 54.8317 99.2364 54.6186C98.9523 54.402 98.6025 54.2937 98.1871 54.2937C97.7574 54.2937 97.3987 54.4055 97.1111 54.6293C96.8234 54.853 96.6068 55.1602 96.4612 55.5508C96.3156 55.9379 96.2428 56.3782 96.2428 56.8718C96.2428 57.3725 96.3156 57.8111 96.4612 58.1875C96.6104 58.5604 96.8287 58.8516 97.1164 59.0611C97.4076 59.267 97.7645 59.37 98.1871 59.37ZM107.557 61.1598C106.758 61.1598 106.065 60.984 105.479 60.6325C104.893 60.2809 104.439 59.7891 104.116 59.157C103.796 58.5249 103.636 57.7862 103.636 56.9411C103.636 56.0959 103.796 55.3555 104.116 54.7198C104.439 54.0842 104.893 53.5906 105.479 53.239C106.065 52.8874 106.758 52.7116 107.557 52.7116C108.356 52.7116 109.048 52.8874 109.634 53.239C110.22 53.5906 110.673 54.0842 110.992 54.7198C111.316 55.3555 111.477 56.0959 111.477 56.9411C111.477 57.7862 111.316 58.5249 110.992 59.157C110.673 59.7891 110.22 60.2809 109.634 60.6325C109.048 60.984 108.356 61.1598 107.557 61.1598ZM107.567 59.6151C108.001 59.6151 108.363 59.4961 108.654 59.2582C108.945 59.0167 109.162 58.6935 109.304 58.2887C109.449 57.8839 109.522 57.4329 109.522 56.9357C109.522 56.435 109.449 55.9822 109.304 55.5774C109.162 55.169 108.945 54.8441 108.654 54.6026C108.363 54.3612 108.001 54.2404 107.567 54.2404C107.123 54.2404 106.754 54.3612 106.459 54.6026C106.168 54.8441 105.95 55.169 105.804 55.5774C105.662 55.9822 105.591 56.435 105.591 56.9357C105.591 57.4329 105.662 57.8839 105.804 58.2887C105.95 58.6935 106.168 59.0167 106.459 59.2582C106.754 59.4961 107.123 59.6151 107.567 59.6151Z" fill="black"/>
<g clip-path="url(#clip1_130_49)">
<rect width="209.598" height="145.212" transform="translate(-5 -17)" fill="#002038"/>
<g filter="url(#filter1_f_130_49)">
<path d="M76.4209 31.5576C65.5321 47.6923 26.7319 52.6864 67.8925 52.6864C23.9446 54.9914 25.9829 99.2232 53.6786 77.6568C58.9146 73.5796 63.5124 69.7427 68.759 65.2078M90.6006 73.892C78.7715 87.8232 82.2809 76.7253 88.0763 63.4429M68.759 65.2078C72.905 61.6242 77.4562 57.6047 83.0475 52.6864C88.428 48.6143 99.7991 38.8567 99.7991 38.8567C99.7991 38.8567 93.0843 51.9654 88.0763 63.4429M68.759 65.2078C72.5198 65.4134 82.1278 65.9015 88.0763 63.4429M88.0763 63.4429C94.3967 60.8306 97.0332 58.372 97.0332 58.372" stroke="#E69545" stroke-width="3.53427" stroke-linecap="round" stroke-linejoin="round"/>
</g>
<path d="M76.4209 31.5576C65.5321 47.6923 26.7319 52.6864 67.8925 52.6864C23.9446 54.9914 25.9829 99.2232 53.6786 77.6568C58.9146 73.5796 63.5124 69.7427 68.759 65.2078M90.6006 73.892C78.7715 87.8232 82.2809 76.7253 88.0763 63.4429M68.759 65.2078C72.905 61.6242 77.4562 57.6047 83.0475 52.6864C88.428 48.6143 99.7991 38.8567 99.7991 38.8567C99.7991 38.8567 93.0843 51.9654 88.0763 63.4429M68.759 65.2078C72.5198 65.4134 82.1278 65.9015 88.0763 63.4429M88.0763 63.4429C94.3967 60.8306 97.0332 58.372 97.0332 58.372" stroke="black" stroke-opacity="0.7" stroke-width="3.53427" stroke-linecap="round" stroke-linejoin="round"/>
<path d="M76.4209 29.7139C65.5321 45.8486 26.7319 50.8427 67.8925 50.8427C23.9446 53.1476 25.9829 97.3794 53.6786 75.8131C58.9146 71.7359 63.5124 67.899 68.759 63.3641M90.6006 72.0483C78.7715 85.9794 82.2809 74.8815 88.0763 61.5991M68.759 63.3641C72.905 59.7805 77.4562 55.761 83.0475 50.8427C88.428 46.7706 99.7991 37.0129 99.7991 37.0129C99.7991 37.0129 93.0843 50.1216 88.0763 61.5991M68.759 63.3641C72.5198 63.5697 82.1278 64.0578 88.0763 61.5991M88.0763 61.5991C94.3967 58.9869 97.0332 56.5282 97.0332 56.5282" stroke="#E69545" stroke-width="2.30496" stroke-linecap="round" stroke-linejoin="round"/>
<g filter="url(#filter2_f_130_49)">
<path d="M76.4209 29.7139C65.5321 45.8486 26.7319 50.8427 67.8925 50.8427C23.9446 53.1476 25.9829 97.3794 53.6786 75.8131C58.9146 71.7359 63.5124 67.899 68.759 63.3641M90.6006 72.0483C78.7715 85.9794 82.2809 74.8815 88.0763 61.5991M68.759 63.3641C72.905 59.7805 77.4562 55.761 83.0475 50.8427C88.428 46.7706 99.7991 37.0129 99.7991 37.0129C99.7991 37.0129 93.0843 50.1216 88.0763 61.5991M68.759 63.3641C72.5198 63.5697 82.1278 64.0578 88.0763 61.5991M88.0763 61.5991C94.3967 58.9869 97.0332 56.5282 97.0332 56.5282" stroke="#FFCA5F" stroke-width="1.22931" stroke-linecap="round" stroke-linejoin="round"/>
</g>
<path d="M111.215 45.9408H116.042V46.8397H112.183V50.1035H115.35V51.0024H112.183V54.7365H116.318V55.6216H111.215V45.9408ZM119.255 46.5078V54.2109C119.264 54.4414 119.31 54.6028 119.393 54.695C119.485 54.778 119.633 54.8195 119.835 54.8195H120.057L120.956 54.5705L121.025 55.4418L120.057 55.7046H119.808C119.245 55.7046 118.849 55.557 118.618 55.262C118.397 54.9578 118.286 54.4968 118.286 53.879V46.4939L118.134 45.3737L119.089 45.2493L119.255 46.5078ZM124.249 55.6216C123.705 55.6216 123.29 55.4787 123.004 55.1929C122.728 54.907 122.589 54.4968 122.589 53.962V50.3663C122.589 49.8407 122.728 49.4351 123.004 49.1493C123.29 48.8542 123.705 48.7067 124.249 48.7067H125.563C126.107 48.7067 126.517 48.8542 126.794 49.1493C127.079 49.4351 127.222 49.8407 127.222 50.3663V51.8046L126.462 52.4822H123.557V53.9897C123.557 54.4875 123.797 54.7365 124.277 54.7365H125.729L126.849 54.4046L127.098 55.2482L125.729 55.6216H124.249ZM123.557 50.3524V51.5971H126.061L126.254 51.445V50.3524C126.254 49.8546 126.015 49.6056 125.535 49.6056H124.277C123.797 49.6056 123.557 49.8546 123.557 50.3524ZM134.13 54.5705L134.268 55.6216L133.314 55.7322L133.162 54.5152V50.3524C133.162 49.8546 132.922 49.6056 132.442 49.6056H132L130.257 50.5737V55.6216H129.289V49.8546L129.151 48.7344L130.091 48.6099L130.216 49.5918L131.779 48.7067H132.47C133.005 48.7067 133.415 48.8542 133.701 49.1493C133.987 49.4351 134.13 49.8407 134.13 50.3663V54.5705ZM136.497 49.0939L137.88 48.7067H139.457C140.001 48.7067 140.411 48.8542 140.688 49.1493C140.973 49.4351 141.116 49.8407 141.116 50.3663V54.529L141.268 55.6216L140.314 55.7322L140.162 54.5014L138.613 55.6216H137.935C137.401 55.6216 136.99 55.4787 136.705 55.1929C136.419 54.8978 136.276 54.4875 136.276 53.962V53.1184C136.276 52.5929 136.419 52.1872 136.705 51.9014C136.99 51.6063 137.401 51.4588 137.935 51.4588H140.148V50.3524C140.148 49.8546 139.908 49.6056 139.429 49.6056H137.88L136.746 49.9376L136.497 49.0939ZM137.963 54.7365H138.364L140.148 53.4365V52.3163H137.963C137.484 52.3163 137.244 52.5652 137.244 53.0631V53.9897C137.244 54.4875 137.484 54.7365 137.963 54.7365ZM115.433 68.7631L114.147 63.8397H113.704L112.404 68.7631H115.433ZM112.183 69.6482L111.409 72.6216H110.454L112.985 62.9408H114.852L117.383 72.6216H116.429L115.64 69.6482H112.183ZM122.386 65.7067V66.7301L121.915 66.7024L120.173 67.4631V72.6216H119.205V66.8546L119.067 65.7344L119.965 65.6099L120.118 66.6056L121.694 65.7067H122.386ZM131.364 71.5152V67.5184C131.364 67.1773 131.304 66.9422 131.184 66.8131C131.064 66.6748 130.857 66.6056 130.562 66.6056L128.736 67.5737V72.6216H127.768V67.5184C127.768 67.1865 127.708 66.9514 127.588 66.8131C127.469 66.6748 127.261 66.6056 126.966 66.6056L125.154 67.5737V72.6216H124.186V66.6471L124.048 65.7344L124.988 65.6099L125.113 66.5918L126.676 65.7067H127.077C127.87 65.7067 128.386 66.0156 128.626 66.6333L130.271 65.7067H130.672C131.207 65.7067 131.617 65.8542 131.903 66.1493C132.189 66.4351 132.332 66.8407 132.332 67.3663V71.5705L132.47 72.6216L131.516 72.7322L131.364 71.5152ZM134.703 66.0939L136.086 65.7067H137.663C138.207 65.7067 138.617 65.8542 138.893 66.1493C139.179 66.4351 139.322 66.8407 139.322 67.3663V71.529L139.474 72.6216L138.52 72.7322L138.368 71.5014L136.819 72.6216H136.141C135.607 72.6216 135.196 72.4787 134.91 72.1929C134.625 71.8978 134.482 71.4875 134.482 70.962V70.1184C134.482 69.5929 134.625 69.1872 134.91 68.9014C135.196 68.6063 135.607 68.4588 136.141 68.4588H138.354V67.3524C138.354 66.8546 138.114 66.6056 137.635 66.6056H136.086L134.952 66.9376L134.703 66.0939ZM136.169 71.7365H136.57L138.354 70.4365V69.3163H136.169C135.69 69.3163 135.45 69.5652 135.45 70.0631V70.9897C135.45 71.4875 135.69 71.7365 136.169 71.7365ZM146.607 71.5705L146.745 72.6216L145.791 72.7322L145.639 71.5152V67.3524C145.639 66.8546 145.399 66.6056 144.919 66.6056H144.477L142.734 67.5737V72.6216H141.766V66.8546L141.628 65.7344L142.568 65.6099L142.693 66.5918L144.256 65.7067H144.947C145.482 65.7067 145.892 65.8542 146.178 66.1493C146.464 66.4351 146.607 66.8407 146.607 67.3663V71.5705ZM150.966 71.7365L152.722 70.7684V66.9099L151.145 66.6056H150.523C150.044 66.6056 149.804 66.8546 149.804 67.3524V70.9897C149.804 71.4875 150.044 71.7365 150.523 71.7365H150.966ZM152.722 63.4939L152.57 62.3461L153.524 62.2216L153.69 63.4939V71.5429L153.828 72.6354L152.888 72.746L152.75 71.7365L151.187 72.6216H150.495C149.961 72.6216 149.55 72.4787 149.265 72.1929C148.979 71.8978 148.836 71.4875 148.836 70.962V67.3663C148.836 66.8407 148.979 66.4351 149.265 66.1493C149.55 65.8542 149.961 65.7067 150.495 65.7067H151.145L152.722 66.011V63.4939Z" fill="#E79C48"/>
</g>
</g>
<defs>
<filter id="filter0_d_130_49" x="0" y="-17" width="187" height="146" filterUnits="userSpaceOnUse" color-interpolation-filters="sRGB">
<feFlood flood-opacity="0" result="BackgroundImageFix"/>
<feColorMatrix in="SourceAlpha" type="matrix" values="0 0 0 0 0 0 0 0 0 0 0 0 0 0 0 0 0 0 127 0" result="hardAlpha"/>
<feOffset/>
<feGaussianBlur stdDeviation="8.5"/>
<feComposite in2="hardAlpha" operator="out"/>
<feColorMatrix type="matrix" values="0 0 0 0 0 0 0 0 0 0 0 0 0 0 0 0 0 0 0.83 0"/>
<feBlend mode="normal" in2="BackgroundImageFix" result="effect1_dropShadow_130_49"/>
<feBlend mode="normal" in="SourceGraphic" in2="effect1_dropShadow_130_49" result="shape"/>
</filter>
<filter id="filter1_f_130_49" x="25.969" y="23.7976" width="81.5903" height="67.5307" filterUnits="userSpaceOnUse" color-interpolation-filters="sRGB">
<feFlood flood-opacity="0" result="BackgroundImageFix"/>
<feBlend mode="normal" in="SourceGraphic" in2="BackgroundImageFix" result="shape"/>
<feGaussianBlur stdDeviation="2.99645" result="effect1_foregroundBlur_130_49"/>
</filter>
<filter id="filter2_f_130_49" x="32.6494" y="28.6381" width="68.2257" height="54.1608" filterUnits="userSpaceOnUse" color-interpolation-filters="sRGB">
<feFlood flood-opacity="0" result="BackgroundImageFix"/>
<feBlend mode="normal" in="SourceGraphic" in2="BackgroundImageFix" result="shape"/>
<feGaussianBlur stdDeviation="0.230496" result="effect1_foregroundBlur_130_49"/>
</filter>
<clipPath id="clip0_130_49">
<rect width="153" height="112" fill="white" transform="translate(17)"/>
</clipPath>
<clipPath id="clip1_130_49">
<rect width="209.598" height="145.212" fill="white" transform="translate(-5 -17)"/>
</clipPath>
</defs>
</svg>
