<svg width="187" height="129" viewBox="0 0 187 129" fill="none" xmlns="http://www.w3.org/2000/svg">
<g clip-path="url(#clip0_320_1108)" filter="url(#filter0_d_320_1108)">
<rect width="153" height="112" transform="translate(17)" fill="black" fill-opacity="0.26"/>
<path d="M77.076 61V50.0909H79.0522V59.3434H83.8569V61H77.076ZM89.0558 61.1598C88.2567 61.1598 87.5643 60.984 86.9783 60.6325C86.3924 60.2809 85.9379 59.7891 85.6147 59.157C85.2951 58.5249 85.1353 57.7862 85.1353 56.9411C85.1353 56.0959 85.2951 55.3555 85.6147 54.7198C85.9379 54.0842 86.3924 53.5906 86.9783 53.239C87.5643 52.8874 88.2567 52.7116 89.0558 52.7116C89.8548 52.7116 90.5472 52.8874 91.1332 53.239C91.7191 53.5906 92.1719 54.0842 92.4915 54.7198C92.8146 55.3555 92.9762 56.0959 92.9762 56.9411C92.9762 57.7862 92.8146 58.5249 92.4915 59.157C92.1719 59.7891 91.7191 60.2809 91.1332 60.6325C90.5472 60.984 89.8548 61.1598 89.0558 61.1598ZM89.0664 59.6151C89.4996 59.6151 89.8619 59.4961 90.1531 59.2582C90.4442 59.0167 90.6609 58.6935 90.8029 58.2887C90.9485 57.8839 91.0213 57.4329 91.0213 56.9357C91.0213 56.435 90.9485 55.9822 90.8029 55.5774C90.6609 55.169 90.4442 54.8441 90.1531 54.6026C89.8619 54.3612 89.4996 54.2404 89.0664 54.2404C88.6225 54.2404 88.2532 54.3612 87.9585 54.6026C87.6673 54.8441 87.4489 55.169 87.3033 55.5774C87.1612 55.9822 87.0902 56.435 87.0902 56.9357C87.0902 57.4329 87.1612 57.8839 87.3033 58.2887C87.4489 58.6935 87.6673 59.0167 87.9585 59.2582C88.2532 59.4961 88.6225 59.6151 89.0664 59.6151ZM98.1711 64.2386C97.4786 64.2386 96.8838 64.1445 96.3866 63.9563C95.8895 63.7717 95.49 63.5231 95.1881 63.2106C94.8863 62.8981 94.6768 62.5518 94.5596 62.1719L96.2961 61.7511C96.3742 61.9109 96.4878 62.0689 96.637 62.2251C96.7861 62.3849 96.9868 62.5163 97.2389 62.6193C97.4946 62.7259 97.816 62.7791 98.203 62.7791C98.7499 62.7791 99.2027 62.646 99.5613 62.3796C99.92 62.1168 100.099 61.6836 100.099 61.0799V59.5298H100.003C99.904 59.7287 99.7584 59.9329 99.5667 60.1424C99.3785 60.3519 99.1281 60.5277 98.8156 60.6697C98.5067 60.8118 98.1178 60.8828 97.6491 60.8828C97.0205 60.8828 96.4506 60.7354 95.9392 60.4407C95.4314 60.1424 95.0265 59.6985 94.7247 59.109C94.4264 58.516 94.2773 57.7738 94.2773 56.8825C94.2773 55.984 94.4264 55.2259 94.7247 54.608C95.0265 53.9865 95.4331 53.516 95.9445 53.1964C96.4559 52.8732 97.0258 52.7116 97.6544 52.7116C98.1338 52.7116 98.528 52.7933 98.8369 52.9567C99.1494 53.1165 99.398 53.31 99.5827 53.5373C99.7673 53.761 99.9076 53.9723 100.003 54.1712H100.11V52.8182H102.012V61.1332C102.012 61.8327 101.845 62.4116 101.511 62.8697C101.177 63.3278 100.721 63.6705 100.142 63.8977C99.5631 64.125 98.9062 64.2386 98.1711 64.2386ZM98.1871 59.37C98.5954 59.37 98.9434 59.2706 99.2311 59.0717C99.5187 58.8729 99.7371 58.587 99.8863 58.2141C100.035 57.8413 100.11 57.3938 100.11 56.8718C100.11 56.3569 100.035 55.9059 99.8863 55.5188C99.7407 55.1317 99.5241 54.8317 99.2364 54.6186C98.9523 54.402 98.6025 54.2937 98.1871 54.2937C97.7574 54.2937 97.3987 54.4055 97.1111 54.6293C96.8234 54.853 96.6068 55.1602 96.4612 55.5508C96.3156 55.9379 96.2428 56.3782 96.2428 56.8718C96.2428 57.3725 96.3156 57.8111 96.4612 58.1875C96.6104 58.5604 96.8287 58.8516 97.1164 59.0611C97.4076 59.267 97.7645 59.37 98.1871 59.37ZM107.557 61.1598C106.758 61.1598 106.065 60.984 105.479 60.6325C104.893 60.2809 104.439 59.7891 104.116 59.157C103.796 58.5249 103.636 57.7862 103.636 56.9411C103.636 56.0959 103.796 55.3555 104.116 54.7198C104.439 54.0842 104.893 53.5906 105.479 53.239C106.065 52.8874 106.758 52.7116 107.557 52.7116C108.356 52.7116 109.048 52.8874 109.634 53.239C110.22 53.5906 110.673 54.0842 110.992 54.7198C111.316 55.3555 111.477 56.0959 111.477 56.9411C111.477 57.7862 111.316 58.5249 110.992 59.157C110.673 59.7891 110.22 60.2809 109.634 60.6325C109.048 60.984 108.356 61.1598 107.557 61.1598ZM107.567 59.6151C108.001 59.6151 108.363 59.4961 108.654 59.2582C108.945 59.0167 109.162 58.6935 109.304 58.2887C109.449 57.8839 109.522 57.4329 109.522 56.9357C109.522 56.435 109.449 55.9822 109.304 55.5774C109.162 55.169 108.945 54.8441 108.654 54.6026C108.363 54.3612 108.001 54.2404 107.567 54.2404C107.123 54.2404 106.754 54.3612 106.459 54.6026C106.168 54.8441 105.95 55.169 105.804 55.5774C105.662 55.9822 105.591 56.435 105.591 56.9357C105.591 57.4329 105.662 57.8839 105.804 58.2887C105.95 58.6935 106.168 59.0167 106.459 59.2582C106.754 59.4961 107.123 59.6151 107.567 59.6151Z" fill="black"/>
<g clip-path="url(#clip1_320_1108)">
<rect width="209.598" height="145.212" transform="translate(-5 -17)" fill="#0A0A16"/>
<g filter="url(#filter1_f_320_1108)">
<path d="M76.4209 31.5576C65.5321 47.6923 26.7319 52.6864 67.8925 52.6864C23.9446 54.9914 25.9829 99.2232 53.6786 77.6568C58.9146 73.5796 63.5124 69.7427 68.759 65.2078M90.6006 73.892C78.7715 87.8232 82.2809 76.7253 88.0763 63.4429M68.759 65.2078C72.905 61.6242 77.4562 57.6047 83.0475 52.6864C88.428 48.6143 99.7991 38.8567 99.7991 38.8567C99.7991 38.8567 93.0843 51.9654 88.0763 63.4429M68.759 65.2078C72.5198 65.4134 82.1278 65.9015 88.0763 63.4429M88.0763 63.4429C94.3967 60.8306 97.0332 58.372 97.0332 58.372" stroke="#E69545" stroke-width="3.53427" stroke-linecap="round" stroke-linejoin="round"/>
</g>
<path d="M76.4209 31.5576C65.5321 47.6923 26.7319 52.6864 67.8925 52.6864C23.9446 54.9914 25.9829 99.2232 53.6786 77.6568C58.9146 73.5796 63.5124 69.7427 68.759 65.2078M90.6006 73.892C78.7715 87.8232 82.2809 76.7253 88.0763 63.4429M68.759 65.2078C72.905 61.6242 77.4562 57.6047 83.0475 52.6864C88.428 48.6143 99.7991 38.8567 99.7991 38.8567C99.7991 38.8567 93.0843 51.9654 88.0763 63.4429M68.759 65.2078C72.5198 65.4134 82.1278 65.9015 88.0763 63.4429M88.0763 63.4429C94.3967 60.8306 97.0332 58.372 97.0332 58.372" stroke="black" stroke-opacity="0.7" stroke-width="3.53427" stroke-linecap="round" stroke-linejoin="round"/>
<path d="M76.4209 29.7139C65.5321 45.8486 26.7319 50.8427 67.8925 50.8427C23.9446 53.1476 25.9829 97.3794 53.6786 75.8131C58.9146 71.7359 63.5124 67.899 68.759 63.3641M90.6006 72.0483C78.7715 85.9794 82.2809 74.8815 88.0763 61.5991M68.759 63.3641C72.905 59.7805 77.4562 55.761 83.0475 50.8427C88.428 46.7706 99.7991 37.0129 99.7991 37.0129C99.7991 37.0129 93.0843 50.1216 88.0763 61.5991M68.759 63.3641C72.5198 63.5697 82.1278 64.0578 88.0763 61.5991M88.0763 61.5991C94.3967 58.9869 97.0332 56.5282 97.0332 56.5282" stroke="#E69545" stroke-width="2.30496" stroke-linecap="round" stroke-linejoin="round"/>
<g filter="url(#filter2_f_320_1108)">
<path d="M76.4209 29.7139C65.5321 45.8486 26.7319 50.8427 67.8925 50.8427C23.9446 53.1476 25.9829 97.3794 53.6786 75.8131C58.9146 71.7359 63.5124 67.899 68.759 63.3641M90.6006 72.0483C78.7715 85.9794 82.2809 74.8815 88.0763 61.5991M68.759 63.3641C72.905 59.7805 77.4562 55.761 83.0475 50.8427C88.428 46.7706 99.7991 37.0129 99.7991 37.0129C99.7991 37.0129 93.0843 50.1216 88.0763 61.5991M68.759 63.3641C72.5198 63.5697 82.1278 64.0578 88.0763 61.5991M88.0763 61.5991C94.3967 58.9869 97.0332 56.5282 97.0332 56.5282" stroke="#FFCA5F" stroke-width="1.22931" stroke-linecap="round" stroke-linejoin="round"/>
</g>
<path d="M111.215 45.9412H116.042V46.8402H112.183V50.104H115.35V51.0029H112.183V54.737H116.318V55.6221H111.215V45.9412ZM119.255 46.5083V54.2114C119.264 54.4419 119.31 54.6033 119.393 54.6955C119.485 54.7785 119.633 54.8199 119.835 54.8199H120.057L120.956 54.571L121.025 55.4423L120.057 55.705H119.808C119.245 55.705 118.849 55.5575 118.618 55.2625C118.397 54.9582 118.286 54.4973 118.286 53.8795V46.4944L118.134 45.3742L119.089 45.2498L119.255 46.5083ZM124.249 55.6221C123.705 55.6221 123.29 55.4792 123.004 55.1933C122.728 54.9075 122.589 54.4973 122.589 53.9625V50.3668C122.589 49.8412 122.728 49.4356 123.004 49.1497C123.29 48.8547 123.705 48.7072 124.249 48.7072H125.563C126.107 48.7072 126.517 48.8547 126.794 49.1497C127.079 49.4356 127.222 49.8412 127.222 50.3668V51.8051L126.462 52.4827H123.557V53.9902C123.557 54.488 123.797 54.737 124.277 54.737H125.729L126.849 54.4051L127.098 55.2487L125.729 55.6221H124.249ZM123.557 50.3529V51.5976H126.061L126.254 51.4455V50.3529C126.254 49.8551 126.015 49.6061 125.535 49.6061H124.277C123.797 49.6061 123.557 49.8551 123.557 50.3529ZM134.13 54.571L134.268 55.6221L133.314 55.7327L133.162 54.5157V50.3529C133.162 49.8551 132.922 49.6061 132.442 49.6061H132L130.257 50.5742V55.6221H129.289V49.8551L129.151 48.7349L130.091 48.6104L130.216 49.5923L131.779 48.7072H132.47C133.005 48.7072 133.415 48.8547 133.701 49.1497C133.987 49.4356 134.13 49.8412 134.13 50.3668V54.571ZM136.497 49.0944L137.88 48.7072H139.457C140.001 48.7072 140.411 48.8547 140.688 49.1497C140.973 49.4356 141.116 49.8412 141.116 50.3668V54.5295L141.268 55.6221L140.314 55.7327L140.162 54.5019L138.613 55.6221H137.935C137.401 55.6221 136.99 55.4792 136.705 55.1933C136.419 54.8983 136.276 54.488 136.276 53.9625V53.1189C136.276 52.5934 136.419 52.1877 136.705 51.9019C136.99 51.6068 137.401 51.4593 137.935 51.4593H140.148V50.3529C140.148 49.8551 139.908 49.6061 139.429 49.6061H137.88L136.746 49.938L136.497 49.0944ZM137.963 54.737H138.364L140.148 53.437V52.3168H137.963C137.484 52.3168 137.244 52.5657 137.244 53.0636V53.9902C137.244 54.488 137.484 54.737 137.963 54.737ZM115.433 68.7636L114.147 63.8402H113.704L112.404 68.7636H115.433ZM112.183 69.6487L111.409 72.6221H110.454L112.985 62.9412H114.852L117.383 72.6221H116.429L115.64 69.6487H112.183ZM122.386 65.7072V66.7306L121.915 66.7029L120.173 67.4636V72.6221H119.205V66.8551L119.067 65.7349L119.965 65.6104L120.118 66.6061L121.694 65.7072H122.386ZM131.364 71.5157V67.5189C131.364 67.1778 131.304 66.9426 131.184 66.8136C131.064 66.6753 130.857 66.6061 130.562 66.6061L128.736 67.5742V72.6221H127.768V67.5189C127.768 67.187 127.708 66.9519 127.588 66.8136C127.469 66.6753 127.261 66.6061 126.966 66.6061L125.154 67.5742V72.6221H124.186V66.6476L124.048 65.7349L124.988 65.6104L125.113 66.5923L126.676 65.7072H127.077C127.87 65.7072 128.386 66.0161 128.626 66.6338L130.271 65.7072H130.672C131.207 65.7072 131.617 65.8547 131.903 66.1497C132.189 66.4356 132.332 66.8412 132.332 67.3668V71.571L132.47 72.6221L131.516 72.7327L131.364 71.5157ZM134.703 66.0944L136.086 65.7072H137.663C138.207 65.7072 138.617 65.8547 138.893 66.1497C139.179 66.4356 139.322 66.8412 139.322 67.3668V71.5295L139.474 72.6221L138.52 72.7327L138.368 71.5019L136.819 72.6221H136.141C135.607 72.6221 135.196 72.4792 134.91 72.1933C134.625 71.8983 134.482 71.488 134.482 70.9625V70.1189C134.482 69.5934 134.625 69.1877 134.91 68.9019C135.196 68.6068 135.607 68.4593 136.141 68.4593H138.354V67.3529C138.354 66.8551 138.114 66.6061 137.635 66.6061H136.086L134.952 66.938L134.703 66.0944ZM136.169 71.737H136.57L138.354 70.437V69.3168H136.169C135.69 69.3168 135.45 69.5657 135.45 70.0636V70.9902C135.45 71.488 135.69 71.737 136.169 71.737ZM146.607 71.571L146.745 72.6221L145.791 72.7327L145.639 71.5157V67.3529C145.639 66.8551 145.399 66.6061 144.919 66.6061H144.477L142.734 67.5742V72.6221H141.766V66.8551L141.628 65.7349L142.568 65.6104L142.693 66.5923L144.256 65.7072H144.947C145.482 65.7072 145.892 65.8547 146.178 66.1497C146.464 66.4356 146.607 66.8412 146.607 67.3668V71.571ZM150.966 71.737L152.722 70.7689V66.9104L151.145 66.6061H150.523C150.044 66.6061 149.804 66.8551 149.804 67.3529V70.9902C149.804 71.488 150.044 71.737 150.523 71.737H150.966ZM152.722 63.4944L152.57 62.3466L153.524 62.2221L153.69 63.4944V71.5433L153.828 72.6359L152.888 72.7465L152.75 71.737L151.187 72.6221H150.495C149.961 72.6221 149.55 72.4792 149.265 72.1933C148.979 71.8983 148.836 71.488 148.836 70.9625V67.3668C148.836 66.8412 148.979 66.4356 149.265 66.1497C149.55 65.8547 149.961 65.7072 150.495 65.7072H151.145L152.722 66.0114V63.4944Z" fill="#DAE6FA"/>
</g>
</g>
<defs>
<filter id="filter0_d_320_1108" x="0" y="-17" width="187" height="146" filterUnits="userSpaceOnUse" color-interpolation-filters="sRGB">
<feFlood flood-opacity="0" result="BackgroundImageFix"/>
<feColorMatrix in="SourceAlpha" type="matrix" values="0 0 0 0 0 0 0 0 0 0 0 0 0 0 0 0 0 0 127 0" result="hardAlpha"/>
<feOffset/>
<feGaussianBlur stdDeviation="8.5"/>
<feComposite in2="hardAlpha" operator="out"/>
<feColorMatrix type="matrix" values="0 0 0 0 0 0 0 0 0 0 0 0 0 0 0 0 0 0 0.83 0"/>
<feBlend mode="normal" in2="BackgroundImageFix" result="effect1_dropShadow_320_1108"/>
<feBlend mode="normal" in="SourceGraphic" in2="effect1_dropShadow_320_1108" result="shape"/>
</filter>
<filter id="filter1_f_320_1108" x="25.969" y="23.7971" width="81.5903" height="67.5317" filterUnits="userSpaceOnUse" color-interpolation-filters="sRGB">
<feFlood flood-opacity="0" result="BackgroundImageFix"/>
<feBlend mode="normal" in="SourceGraphic" in2="BackgroundImageFix" result="shape"/>
<feGaussianBlur stdDeviation="2.99645" result="effect1_foregroundBlur_320_1108"/>
</filter>
<filter id="filter2_f_320_1108" x="32.6494" y="28.6386" width="68.2257" height="54.1603" filterUnits="userSpaceOnUse" color-interpolation-filters="sRGB">
<feFlood flood-opacity="0" result="BackgroundImageFix"/>
<feBlend mode="normal" in="SourceGraphic" in2="BackgroundImageFix" result="shape"/>
<feGaussianBlur stdDeviation="0.230496" result="effect1_foregroundBlur_320_1108"/>
</filter>
<clipPath id="clip0_320_1108">
<rect width="153" height="112" fill="white" transform="translate(17)"/>
</clipPath>
<clipPath id="clip1_320_1108">
<rect width="209.598" height="145.212" fill="white" transform="translate(-5 -17)"/>
</clipPath>
</defs>
</svg>
